<?xml version="1.0" encoding="utf-8"?>
<!-- Generator: Adobe Illustrator 19.0.0, SVG Export Plug-In . SVG Version: 6.00 Build 0)  -->
<svg version="1.1" id="圖層_1" xmlns="http://www.w3.org/2000/svg" xmlns:xlink="http://www.w3.org/1999/xlink" x="0px" y="0px"
	 viewBox="0 0 2132.1 297.2" style="enable-background:new 0 0 2132.1 297.2;" xml:space="preserve">
<style type="text/css">
	.st0{opacity:0.79;}
	.st1{fill:#78D0EF;}
	.st2{fill:#325561;}
</style>
<g id="puzzle_1_" class="st0">
	<path id="XMLID_89_" class="st1" d="M2107.6,101.4c-3,18.4-9.3,36.5-14.9,54.2c-7,22.2-14.4,44.3-22,66.3
		c-3.6,10.4-5.4,21.8-11,31.4c-3.8,6.6-12.2,8.5-19.4,8.1c-5.2-0.3-10.2-1.7-15.1-3.5c-6.7-2.5-13.7-4.4-20.5-6.6
		c-6.3-2-12.6-4.3-19.1-5.9c-3-0.7-8-2.4-10-5.2c-1.9-2.7-0.3-6.4,0.2-9.4c1.3-7.6,5.9-14.2,14.3-14.5c6-0.2,13.4,3.9,19,0.5
		c6.6-4,3.5-11.2-1.3-14.8c-2.1-1.6-12.8-7.5-5.5-8.9c11.6-2.3,21.7-7.4,19.9-14.9c-1.8-7.5-22-2.2-22-2.2s10.6-10.8,4.5-18.9
		c-6.1-8.2-20.2,7-20.3,6.3c-1.9-8.4-8-22.5-17.7-11.3c-3.9,4.5-4.1,12.8-4.3,18.4c-4.7-3.8-9.9-10.2-16.5-10.3
		c-9.3-0.1-8.4,10.4-6.8,16.6c1.7,7,8.2,12,10.1,19.2c2.3,8.9,0.2,17.9-4.6,25.6c-0.7,1.1-2.7,3.2-4.4,5.1c-1.9,2-4.7,2.8-7.4,2
		c-21.9-6.9-39.9-12.7-43-13.8c-6.3-2.5-12.6-6.5-13.9-13.6c-3.2-18.7,8.4-39.7,15.7-56.1c4.4-9.9-4.3-13.6-13-13.2
		c-4.3,0.2-8.7,1-12.6,2.8c-6.2,2.8-10.8,8.4-17.8,9.5c-5.8,0.9-14.7-1.4-13.8-8.8c0.6-5.8,5.1-10.7,8.7-15.1c0.1-0.2,0-0.4-0.2-0.3
		c-4.7,2.1-15-2.7-17.6-6c-7.8-9.8,4.8-13.9,12.4-15.6c0.7-0.1-14.6-14.3-6.3-20.3c8.2-6,19,4.7,19,4.7s-5.3-20.1,2.2-21.8
		s11.3,3.8,14.4,15.2c3.1,11.3,6,7.2,7.1,6.4c3.7-2.8,9.7-13.1,14-10.9c6.2,3.2,3.7,9.9,3.4,15.3c-0.4,6.5,1.7,15.8,8.5,18.6
		c7.2,2.9,7.1-4.9,8.6-11.2c5.9-23.4,9.7-56.9,32.5-70.7c7.8-4.8,17.1-4.1,25.8-2.2c12.2,2.8,23.9,7.5,35.6,11.8l76.1,25.5
		C2078.7,58.8,2112.8,69.3,2107.6,101.4"/>
</g>
<g id="XMLID_18_">
	<path id="XMLID_43_" class="st2" d="M383.9,160v60.5H332V53.9h71.2c17.7,0,31.2,2,40.5,6.1c9.2,4.1,16.6,10.3,22,18.7
		c5.4,8.4,8.1,17.8,8.1,28.2c0,15.9-5.5,28.7-16.6,38.5c-11.1,9.8-25.8,14.6-44.3,14.6H383.9z M383.2,124.2h17.1
		c15.1,0,22.6-5.5,22.6-16.6c0-10.4-7-15.6-20.9-15.6h-18.8V124.2z"/>
	<path id="XMLID_46_" class="st2" d="M703.3,220.5h-56.7l-24.3-63.7h-16.1v63.7H555V53.9h87c19.2,0,34.1,4.5,44.7,13.5
		c10.6,9,15.9,20.9,15.9,35.6c0,9.6-2,18.1-5.9,25.5c-3.9,7.4-11.8,13.9-23.7,19.5L703.3,220.5z M606.2,121.2H628
		c6.4,0,11.6-1.3,15.5-4c3.9-2.7,5.9-6.6,5.9-11.8c0-10.7-6.6-16-19.7-16h-23.6V121.2z"/>
	<path id="XMLID_49_" class="st2" d="M859.8,223.1c-23.4,0-42.5-7.8-57.3-23.3c-14.8-15.5-22.2-36.3-22.2-62.4
		c0-24.9,7.1-45.5,21.2-61.7c14.1-16.2,33.7-24.4,58.8-24.4c23.2,0,42.1,7.7,56.7,22.9c14.6,15.3,21.9,35.7,21.9,61.3
		c0,26.4-7.4,47.7-22.1,63.6C902.1,215.1,883.1,223.1,859.8,223.1z M859.6,185.3c8.6,0,14.8-3.8,18.6-11.3
		c3.8-7.5,5.7-21.3,5.7-41.3c0-29-7.8-43.5-23.3-43.5c-16.8,0-25.1,16.5-25.1,49.6C835.4,169.8,843.5,185.3,859.6,185.3z"/>
	<path id="XMLID_52_" class="st2" d="M1022.8,220.5V53.9h64.5c28,0,49,8.3,62.9,24.9s20.9,35.8,20.9,57.6c0,24.9-7.5,45.1-22.4,60.7
		c-14.9,15.6-34.3,23.4-58.2,23.4H1022.8z M1073.9,182.2h13.3c8.5,0,15.6-4.1,21.4-12.3c5.8-8.2,8.7-19.4,8.7-33.6
		c0-12.1-2.6-22.6-7.8-31.4c-5.2-8.8-12.6-13.2-22.4-13.2h-13.3V182.2z"/>
	<path id="XMLID_55_" class="st2" d="M1390,53.9v110.4c0,20.9-6.2,35.9-18.6,45.1c-12.4,9.2-28.6,13.7-48.5,13.7
		c-21,0-37.9-4.4-50.6-13.2c-12.7-8.8-19.1-23.1-19.1-43v-113h52V161c0,8,1.7,13.8,5.1,17.5c3.4,3.7,8.7,5.5,16.1,5.5
		c6.2,0,11.2-1.3,15.2-4c3.9-2.6,6.3-5.6,7.1-9c0.8-3.3,1.2-9.8,1.2-19.5V53.9H1390z"/>
	<path id="XMLID_57_" class="st2" d="M1571.2,156.9l46.8,2.8c-2.2,20.4-9.7,36.1-22.6,47c-12.9,10.9-28.7,16.4-47.5,16.4
		c-22.6,0-40.9-7.5-54.8-22.5c-13.9-15-20.9-35.6-20.9-62c0-26.1,6.6-47.2,19.8-63.2c13.2-16,31.6-24,55.2-24
		c22.1,0,39,6.1,50.8,18.3c11.8,12.2,18.5,28.4,20.1,48.6l-47.7,2.6c0-11.1-2.1-19.2-6.4-24.2c-4.3-5-9.3-7.4-15.1-7.4
		c-16.1,0-24.2,16.2-24.2,48.6c0,18.1,2.1,30.5,6.3,37c4.2,6.5,10.1,9.8,17.6,9.8C1562,184.5,1569.6,175.3,1571.2,156.9z"/>
	<path id="XMLID_59_" class="st2" d="M1767.4,93.8v126.7h-48.5V93.8h-34.5V53.9h117.6v39.9H1767.4z"/>
</g>
<g id="puzzle_2_" class="st0">
	<path id="XMLID_28_" class="st1" d="M301.6,101.4c-3,18.4-9.3,36.5-14.9,54.2c-7,22.2-14.4,44.3-22,66.3
		c-3.6,10.4-5.4,21.8-11,31.4c-3.8,6.6-12.2,8.5-19.4,8.1c-5.2-0.3-10.2-1.7-15.1-3.5c-6.7-2.5-13.7-4.4-20.5-6.6
		c-6.3-2-12.6-4.3-19.1-5.9c-3-0.7-8-2.4-10-5.2c-1.9-2.7-0.3-6.4,0.2-9.4c1.3-7.6,5.9-14.2,14.3-14.5c6-0.2,13.4,3.9,19,0.5
		c6.6-4,3.5-11.2-1.3-14.8c-2.1-1.6-12.8-7.5-5.5-8.9c11.6-2.3,21.7-7.4,19.9-14.9c-1.8-7.5-22-2.2-22-2.2s10.6-10.8,4.5-18.9
		c-6.1-8.2-20.2,7-20.3,6.3c-1.9-8.4-8-22.5-17.7-11.3c-3.9,4.5-4.1,12.8-4.3,18.4c-4.7-3.8-9.9-10.2-16.5-10.3
		c-9.3-0.1-8.4,10.4-6.8,16.6c1.7,7,8.2,12,10.1,19.2c2.3,8.9,0.2,17.9-4.6,25.6c-0.7,1.1-2.7,3.2-4.4,5.1c-1.9,2-4.7,2.8-7.4,2
		C105,221.7,87,216,84,214.8c-6.3-2.5-12.6-6.5-13.9-13.6c-3.2-18.7,8.4-39.7,15.7-56.1c4.4-9.9-4.3-13.6-13-13.2
		c-4.3,0.2-8.7,1-12.6,2.8c-6.2,2.8-10.8,8.4-17.8,9.5c-5.8,0.9-14.7-1.4-13.8-8.8c0.6-5.8,5.1-10.7,8.7-15.1c0.1-0.2,0-0.4-0.2-0.3
		c-4.7,2.1-15-2.7-17.6-6c-7.8-9.8,4.8-13.9,12.4-15.6c0.7-0.1-14.6-14.3-6.3-20.3c8.2-6,19,4.7,19,4.7s-5.3-20.1,2.2-21.8
		s11.3,3.8,14.4,15.2c3.1,11.3,6,7.2,7.1,6.4c3.7-2.8,9.7-13.1,14-10.9c6.2,3.2,3.7,9.9,3.4,15.3c-0.4,6.5,1.7,15.8,8.5,18.6
		c7.2,2.9,7.1-4.9,8.6-11.2c5.9-23.4,9.7-56.9,32.5-70.7c7.8-4.8,17.1-4.1,25.8-2.2c12.2,2.8,23.9,7.5,35.6,11.8l76.1,25.5
		C272.7,58.8,306.8,69.3,301.6,101.4"/>
</g>
<g id="XMLID_42_">
</g>
<g id="XMLID_61_">
</g>
<g id="XMLID_62_">
</g>
<g id="XMLID_63_">
</g>
<g id="XMLID_64_">
</g>
<g id="XMLID_65_">
</g>
<g id="XMLID_66_">
</g>
<g id="XMLID_67_">
</g>
<g id="XMLID_68_">
</g>
<g id="XMLID_69_">
</g>
<g id="XMLID_70_">
</g>
<g id="XMLID_71_">
</g>
<g id="XMLID_72_">
</g>
<g id="XMLID_73_">
</g>
<g id="XMLID_74_">
</g>
</svg>
