<?xml version="1.0" encoding="utf-8"?>
<!-- Generator: Adobe Illustrator 19.0.0, SVG Export Plug-In . SVG Version: 6.00 Build 0)  -->
<svg version="1.1" id="圖層_1" xmlns="http://www.w3.org/2000/svg" xmlns:xlink="http://www.w3.org/1999/xlink" x="0px" y="0px"
	 viewBox="0 0 247.4 197.6" style="enable-background:new 0 0 247.4 197.6;" xml:space="preserve">
<style type="text/css">
	.st0{fill:#F39800;}
	.st1{font-family:'AdobeFanHeitiStd-Bold-B5pc-H';}
	.st2{font-size:72.2938px;}
</style>
<g id="XMLID_197_">
	<text id="XMLID_116_" transform="matrix(1 0 0 1 59.1432 114.8792)" class="st0 st1 st2">借入</text>
	<g id="XMLID_27_">
		<path id="XMLID_37_" class="st0" d="M0,82.9c0.9-3.9,1.6-7.9,2.8-11.7c7.5-24.7,24.7-41.2,46.6-53.1C80.6,1.1,114.2-3,149,1.9
			c27.2,3.9,51.8,14,72.5,32.7c31.6,28.6,34.8,70.9,7.5,102.6c-10.6,12.3-23.6,21.3-38.2,28.2c-9.5,4.5-10.7,6.5-10,17.1
			c0.1,1.6,0.4,3.3,0.6,4.9c0.7,8.1-2.2,11.3-10.1,9.8c-16.6-3.2-32.9-7.2-47.5-16.1c-1.5-0.9-3.4-1.1-5.1-1.4
			c-15.1-2.6-30.6-3.8-45.2-8.1c-26.9-8-49.8-22.6-63.9-47.8C5,115.7,3.1,106.1,0,97.2C0,92.5,0,87.7,0,82.9z M187.3,149.8
			c11.6-4.9,22.4-13.1,31.5-22c23.2-22.9,22.8-53.6,0.5-77.3c-16.8-17.8-38.1-27.7-61.6-32.6C120,10.2,83.6,13.9,50,33.6
			c-8.9,5.2-17.2,12.3-24.1,20c-19.4,21.6-19,50.1,0.2,72C42.9,144.7,64.9,155,89.2,160c11.8,2.4,24,2.6,36,4c2.5,0.3,5,1,7.2,2.1
			c9.7,4.7,19.3,9.7,28.9,14.6c0.8-0.2,1.7-0.4,2.5-0.6C162.1,161.8,173.2,155.8,187.3,149.8z"/>
	</g>
</g>
</svg>
