<?xml version="1.0" encoding="utf-8"?>
<!-- Generator: Adobe Illustrator 19.0.0, SVG Export Plug-In . SVG Version: 6.00 Build 0)  -->
<svg version="1.1" id="圖層_1" xmlns="http://www.w3.org/2000/svg" xmlns:xlink="http://www.w3.org/1999/xlink" x="0px" y="0px"
	 viewBox="0 0 183.7 72.9" style="enable-background:new 0 0 183.7 72.9;" xml:space="preserve">
<style type="text/css">
	.st0{font-family:'AdobeFanHeitiStd-Bold-B5pc-H';}
	.st1{font-size:18px;}
</style>
<text id="XMLID_631_" transform="matrix(1 0 0 1 87.4585 55.8056)" class="st0 st1">尚未評論      </text>
<g id="XMLID_624_">
	<path id="XMLID_628_" d="M90.6,14.1c-0.4,1.3-0.7,2.7-1.4,3.8c-2,3.6-5.4,5.8-9.2,6.9c-2.1,0.6-4.4,0.8-6.5,1.2
		c-0.3,0-0.5,0.1-0.7,0.2c-2.1,1.3-4.5,1.9-6.9,2.3c-1.1,0.2-1.6-0.2-1.5-1.4c0-0.2,0.1-0.5,0.1-0.7c0.1-1.5-0.1-1.8-1.4-2.5
		c-2.1-1-4-2.3-5.5-4.1C53.6,15.3,54.1,9.1,58.6,5c3-2.7,6.5-4.2,10.5-4.7c5-0.7,9.9-0.1,14.4,2.3c3.2,1.7,5.6,4.1,6.7,7.7
		c0.2,0.6,0.3,1.1,0.4,1.7C90.6,12.7,90.6,13.4,90.6,14.1z M67.5,24.9c0.1,0,0.2,0.1,0.3,0.1c1.3-0.6,2.5-1.3,3.8-1.9
		c0.3-0.1,0.6-0.2,0.9-0.3c1.6-0.2,3.2-0.2,4.7-0.5c3.2-0.7,6.1-2,8.3-4.5c2.5-2.9,2.6-6.6,0-9.4c-0.9-1-2-1.9-3.2-2.6
		c-4.4-2.6-9.2-3.1-14.1-2c-3.1,0.6-5.9,1.9-8.1,4.3c-2.9,3.1-3,7.1,0.1,10.1c1.2,1.2,2.6,2.2,4.1,2.9
		C66.3,21.7,67.7,22.5,67.5,24.9z"/>
	<path id="XMLID_627_" d="M72.7,10.7c1.2,0,2.1,0.9,2.2,2.1c0,1.2-0.9,2.2-2.1,2.2c-1.2,0-2.1-0.9-2.1-2.1
		C70.6,11.6,71.5,10.7,72.7,10.7z"/>
	<path id="XMLID_626_" d="M67.1,12.8c0,1.2-0.9,2.1-2.1,2.1c-1.2,0-2.2-1-2.2-2.2c0-1.2,1-2.1,2.1-2.1
		C66.2,10.7,67.1,11.6,67.1,12.8z"/>
	<path id="XMLID_625_" d="M78.4,12.8c0-1.2,0.9-2.1,2.1-2.1c1.2,0,2.1,0.9,2.1,2.1c0,1.2-1,2.2-2.2,2.1C79.3,14.9,78.4,14,78.4,12.8
		z"/>
</g>
<g id="XMLID_99_">
	<path id="XMLID_620_" d="M31.3,72.9c-5.4,0-11.4-0.6-17.2-2.1C10.9,70,7.8,68.9,5,67.2c-1.4-0.9-2.7-1.9-3.8-3.2
		C0.4,62.9,0,61.6,0,60.2c0-6.3,0.8-12.6,2.7-18.6C4,37.4,5.8,33.5,8.5,30c4.3-5.6,9.9-8.9,16.8-10.1c4.8-0.8,9.5-0.7,14.2,0.4
		C46.7,22,52.1,26.2,56,32.4c2.6,4.2,4.2,8.8,5.3,13.5c1.1,4.8,1.5,9.6,1.5,14.5c0,1.8-0.9,3.3-2.1,4.5c-1.6,1.5-3.4,2.6-5.4,3.5
		c-3.1,1.5-6.5,2.3-9.8,3C41,72.4,36.5,72.8,31.3,72.9z M46.5,44.6c0-1.3-0.3-2.2-1-3c-1.2-1.3-3-1.4-4.3-0.1
		c-1.5,1.6-1.4,4.4,0.2,5.9c1,0.9,2.6,1,3.7,0C46,46.7,46.5,45.6,46.5,44.6z M22.6,44.3c0-0.8-0.3-1.8-0.9-2.6
		c-1.2-1.4-3.1-1.4-4.3-0.1c-1.5,1.6-1.3,4.4,0.3,5.9c1.1,1,2.7,1,3.7,0C22.2,46.7,22.6,45.6,22.6,44.3z"/>
</g>
</svg>
