<?xml version="1.0" encoding="utf-8"?>
<!-- Generator: Adobe Illustrator 19.0.0, SVG Export Plug-In . SVG Version: 6.00 Build 0)  -->
<svg version="1.1" id="圖層_1" xmlns="http://www.w3.org/2000/svg" xmlns:xlink="http://www.w3.org/1999/xlink" x="0px" y="0px"
	 viewBox="0 0 147.2 118.3" style="enable-background:new 0 0 147.2 118.3;" xml:space="preserve">
<g id="XMLID_125_">
	<g id="XMLID_287_">
		<path id="XMLID_291_" d="M147.2,22.8c-0.7,2.1-1.2,4.3-2.2,6.2c-3.3,5.9-8.7,9.3-15,11.2c-3.4,1-7.1,1.3-10.6,1.9
			c-0.4,0.1-0.9,0.1-1.2,0.3c-3.4,2.1-7.3,3-11.2,3.8c-1.8,0.4-2.5-0.4-2.4-2.3c0-0.4,0.1-0.8,0.1-1.2c0.2-2.5-0.1-3-2.3-4
			c-3.4-1.6-6.5-3.7-9-6.6c-6.4-7.4-5.6-17.4,1.8-24.1c4.9-4.4,10.6-6.8,17-7.7c8.2-1.2,16.1-0.2,23.4,3.8
			c5.1,2.8,9.2,6.7,10.9,12.5c0.3,0.9,0.4,1.8,0.7,2.7C147.2,20.6,147.2,21.7,147.2,22.8z M109.6,40.5c0.2,0,0.4,0.1,0.5,0.1
			c2-1,4.1-2.1,6.1-3.1c0.5-0.2,1-0.4,1.5-0.5c2.6-0.3,5.2-0.3,7.7-0.8c5.2-1.1,9.9-3.3,13.4-7.3c4.1-4.7,4.2-10.7,0-15.3
			c-1.5-1.6-3.2-3.1-5.1-4.3c-7.1-4.2-14.9-5-22.9-3.3c-5,1-9.5,3.1-13.1,6.9c-4.7,5-4.8,11.6,0.1,16.4c1.9,1.9,4.2,3.6,6.7,4.7
			C107.6,35.3,110,36.6,109.6,40.5z"/>
		<path id="XMLID_290_" d="M118.1,17.4c2,0,3.5,1.4,3.5,3.3c0.1,1.9-1.5,3.6-3.5,3.5c-1.9,0-3.4-1.5-3.5-3.4
			C114.7,18.9,116.2,17.4,118.1,17.4z"/>
		<path id="XMLID_289_" d="M109,20.8c0,1.9-1.5,3.4-3.4,3.5c-1.9,0-3.5-1.6-3.5-3.5c0-1.9,1.6-3.4,3.5-3.4
			C107.6,17.4,109,18.8,109,20.8z"/>
		<path id="XMLID_288_" d="M127.3,20.8c0-2,1.4-3.4,3.4-3.4c1.9,0,3.4,1.5,3.4,3.4c0,1.9-1.6,3.5-3.5,3.5
			C128.7,24.2,127.3,22.7,127.3,20.8z"/>
	</g>
	<g id="XMLID_141_">
		<path id="XMLID_169_" d="M50.8,118.3c-8.7,0-18.5-0.9-28-3.4c-5.2-1.3-10.1-3.1-14.7-5.9c-2.3-1.4-4.5-3-6.1-5.2
			c-1.3-1.8-2-3.8-2-6c0-10.3,1.3-20.4,4.4-30.3c2.1-6.8,5-13.2,9.4-18.9c6.9-9,16-14.5,27.2-16.4c7.8-1.3,15.5-1.2,23.1,0.7
			c11.7,2.8,20.5,9.5,26.8,19.7c4.2,6.8,6.8,14.2,8.5,22c1.7,7.8,2.4,15.7,2.4,23.6c0,3-1.4,5.3-3.5,7.3c-2.5,2.5-5.6,4.3-8.8,5.8
			c-5.1,2.4-10.5,3.8-16,4.9C66.5,117.6,59.2,118.2,50.8,118.3z M75.5,72.5c0-2.1-0.5-3.6-1.6-4.9c-1.9-2.2-4.9-2.2-6.9-0.1
			c-2.5,2.6-2.3,7.2,0.4,9.6c1.7,1.5,4.2,1.5,5.9,0.1C74.8,75.9,75.4,74.1,75.5,72.5z M36.7,71.9c0-1.4-0.5-2.9-1.5-4.2
			c-1.9-2.3-5.1-2.4-7.1-0.1c-2.4,2.7-2.2,7.1,0.5,9.5c1.7,1.6,4.3,1.6,6,0C36,75.8,36.7,74.1,36.7,71.9z"/>
	</g>
</g>
</svg>
