<?xml version="1.0" encoding="utf-8"?>
<!-- Generator: Adobe Illustrator 19.0.0, SVG Export Plug-In . SVG Version: 6.00 Build 0)  -->
<svg version="1.1" id="圖層_1" xmlns="http://www.w3.org/2000/svg" xmlns:xlink="http://www.w3.org/1999/xlink" x="0px" y="0px"
	 viewBox="0 0 251 200.5" style="enable-background:new 0 0 251 200.5;" xml:space="preserve">
<style type="text/css">
	.st0{fill:#F39800;}
	.st1{font-family:'AdobeFanHeitiStd-Bold-B5pc-H';}
	.st2{font-size:73.3533px;}
</style>
<g id="XMLID_196_">
	<text id="XMLID_323_" transform="matrix(1 0 0 1 43.7092 119.6223)" class="st0 st1 st2">租出</text>
	<path id="XMLID_28_" class="st0" d="M0,84.2c0.9-4,1.7-8,2.8-11.8c7.6-25.1,25-41.8,47.2-53.9C81.7,1.1,115.9-3,151.1,2
		c27.6,3.9,52.6,14.2,73.5,33.2c32,29,35.3,71.9,7.7,104.1c-10.7,12.5-23.9,21.6-38.7,28.6c-9.6,4.6-10.8,6.6-10.1,17.4
		c0.1,1.7,0.4,3.3,0.6,5c0.7,8.2-2.3,11.5-10.2,10c-16.8-3.2-33.4-7.3-48.2-16.4c-1.5-0.9-3.4-1.2-5.2-1.5
		c-15.3-2.7-31.1-3.8-45.9-8.2C47.3,166,24,151.2,9.7,125.6c-4.6-8.2-6.5-17.9-9.7-27C0,93.8,0,89,0,84.2z M190.1,152
		c11.7-4.9,22.8-13.3,31.9-22.3c23.5-23.2,23.2-54.4,0.5-78.4c-17.1-18.1-38.6-28.1-62.6-33.1c-38.2-7.9-75.1-4.2-109.2,15.8
		c-9,5.3-17.4,12.5-24.4,20.3c-19.7,21.9-19.3,50.9,0.2,73c17.1,19.5,39.3,29.9,64.1,35c12,2.5,24.4,2.6,36.6,4
		c2.5,0.3,5.1,1,7.4,2.2c9.8,4.8,19.6,9.8,29.3,14.8c0.8-0.2,1.7-0.4,2.5-0.6C164.5,164.2,175.7,158,190.1,152z"/>
</g>
</svg>
