<?xml version="1.0" encoding="utf-8"?>
<!-- Generator: Adobe Illustrator 19.0.0, SVG Export Plug-In . SVG Version: 6.00 Build 0)  -->
<svg version="1.1" id="圖層_1" xmlns="http://www.w3.org/2000/svg" xmlns:xlink="http://www.w3.org/1999/xlink" x="0px" y="0px"
	 viewBox="0 0 478.3 384.4" style="enable-background:new 0 0 478.3 384.4;" xml:space="preserve">
<g id="XMLID_551_">
	<path id="XMLID_555_" d="M478.3,74.2c-2.4,6.8-3.8,14.1-7.3,20.3c-10.7,19.2-28.3,30.4-48.8,36.4c-11.1,3.3-23,4.2-34.5,6.2
		c-1.3,0.2-2.8,0.4-3.9,1.1c-11.2,6.8-23.6,9.9-36.3,12.3c-6,1.1-8.2-1.3-7.7-7.5c0.1-1.3,0.3-2.5,0.4-3.8c0.5-8.1-0.4-9.6-7.6-13.1
		c-11.1-5.3-21.1-12.1-29.1-21.5c-20.8-24.2-18.3-56.4,5.8-78.2c15.8-14.3,34.5-22,55.3-24.9c26.5-3.8,52.2-0.6,76,12.4
		c16.7,9.1,29.8,21.7,35.5,40.5c0.9,2.9,1.4,5.9,2.1,8.9C478.3,66.9,478.3,70.5,478.3,74.2z M356.1,131.5c0.6,0.1,1.2,0.3,1.7,0.4
		c6.7-3.4,13.3-6.8,20-10.1c1.5-0.8,3.3-1.3,5-1.5c8.3-1,16.8-1.1,24.9-2.8c16.9-3.5,32-10.6,43.7-23.8
		c13.3-15.1,13.5-34.8,0.1-49.8c-4.8-5.3-10.5-10.2-16.6-13.8c-23.2-13.6-48.4-16.2-74.4-10.8c-16.3,3.4-31,10.2-42.6,22.5
		c-15.4,16.4-15.7,37.6,0.4,53.4c6.2,6.2,13.8,11.8,21.8,15.2C349.7,114.7,357.4,118.8,356.1,131.5z"/>
	<path id="XMLID_554_" d="M383.7,56.5c6.4-0.1,11.3,4.6,11.4,10.8c0.2,6.3-5,11.5-11.3,11.5c-6.2,0-11.2-5-11.2-11.2
		C372.6,61.4,377.4,56.5,383.7,56.5z"/>
	<path id="XMLID_553_" d="M354.2,67.6c0,6.3-4.8,11.2-11,11.2c-6.3,0.1-11.5-5.1-11.4-11.4c0.1-6.2,5-10.9,11.3-10.9
		C349.5,56.5,354.2,61.2,354.2,67.6z"/>
	<path id="XMLID_552_" d="M413.6,67.4c0-6.4,4.7-11,11.1-11c6.2,0,11.2,4.9,11.2,11c0,6.3-5.2,11.4-11.5,11.3
		C418.2,78.6,413.6,73.7,413.6,67.4z"/>
</g>
<g id="XMLID_544_">
	<path id="XMLID_547_" d="M165.2,384.4c-28.4,0.1-60-3-91-10.9c-16.8-4.3-33-10-47.8-19c-7.5-4.6-14.5-9.9-19.8-17
		C2.1,331.7,0,325.2,0,317.9c0.2-33.5,4.2-66.3,14.2-98.4c6.9-22.1,16.3-42.9,30.5-61.4c22.5-29.3,52.1-47.1,88.5-53.3
		c25.2-4.3,50.3-3.8,75.2,2.1c38,9.1,66.7,31,87.1,64c13.7,22.1,22.1,46.3,27.7,71.5c5.7,25.3,7.9,50.9,7.9,76.7
		c0,9.7-4.7,17.2-11.2,23.7c-8.2,8.2-18.1,13.9-28.5,18.7c-16.6,7.7-34,12.4-51.9,15.9C216.1,382.1,192.5,384.2,165.2,384.4z
		 M245.2,235.5c0-6.7-1.5-11.6-5.2-15.8c-6.3-7.1-16-7.3-22.5-0.4c-8.1,8.6-7.5,23.3,1.3,31.2c5.5,4.9,13.7,5,19.3,0.2
		C242.9,246.5,245.1,240.9,245.2,235.5z M119.2,233.6c0-4.5-1.5-9.3-5-13.5c-6.2-7.5-16.4-7.6-22.9-0.4c-7.8,8.7-7.1,23.1,1.6,30.9
		c5.6,5.1,14,5.1,19.6-0.1C117.1,246.2,119.1,240.8,119.2,233.6z"/>
</g>
</svg>
