<?xml version="1.0" encoding="utf-8"?>
<!-- Generator: Adobe Illustrator 19.0.0, SVG Export Plug-In . SVG Version: 6.00 Build 0)  -->
<svg version="1.1" id="圖層_1" xmlns="http://www.w3.org/2000/svg" xmlns:xlink="http://www.w3.org/1999/xlink" x="0px" y="0px"
	 viewBox="0 0 2905.9 3177.9" style="enable-background:new 0 0 2905.9 3177.9;" xml:space="preserve">
<style type="text/css">
	.st0{opacity:0.85;fill:#3FA9F5;}
	.st1{stroke:#000000;stroke-width:12;stroke-miterlimit:10;}
	.st2{fill:#FFFFFF;stroke:#000000;stroke-width:12;stroke-miterlimit:10;}
	.st3{opacity:0.47;}
	.st4{fill:#3FA9F5;}
	.st5{opacity:0.63;}
	.st6{fill:#234563;stroke:#234563;stroke-miterlimit:10;}
	.st7{opacity:0.86;}
	.st8{fill:#29ABE2;}
	.st9{opacity:0.72;}
	.st10{fill:#0071BC;}
	.st11{fill:#234563;}
	.st12{opacity:0.74;}
</style>
<path id="XMLID_69_" class="st0" d="M2646,793.2c-42.2,15.3-82.3,38.2-121.7,59.3c-49.5,26.4-98.5,53.7-147.3,81.4
	c-23.1,13.1-49.1,22.3-69.4,39.8c-13.9,12-14.8,32.6-10.7,49.3c3,12,8.6,23.3,14.9,33.9c8.8,14.7,16.4,30.2,24.5,45.2
	c7.5,14,15.7,27.7,22.3,42.2c3.1,6.8,9.1,17.8,16.5,21.2c7.1,3.2,15.4-2.1,22.3-4.6c17.5-6.4,31-20.3,28.1-40.1
	c-2.1-14.3-15.1-29.8-9.5-44.6c6.6-17.3,24.9-13.3,35.7-3.5c4.7,4.3,23.3,26.8,23.5,9c0.4-28.4,8.1-54.3,26.6-53.5
	s14.7,50.7,14.7,50.7s20.8-29.8,42.8-19.1c22,10.7-7.8,50.6-6.1,50.7c20.6,0.7,56.6,8.8,34.5,36.5c-8.8,11.1-28.4,15.3-41.6,18.5
	c11,9.4,28.3,18.7,31.4,34.1c4.4,21.9-20.8,24.3-36.4,23.6c-17.2-0.8-31.9-13.9-49.8-15.1c-22-1.5-42.4,7.6-58.5,22.2
	c-2.3,2.1-6.4,7.8-10.1,12.7c-4,5.3-4.6,12.4-1.5,18.3c25.9,48.5,47.3,88.3,51.4,94.9c8.6,13.7,20.8,26.8,38.2,26.5
	c45.6-0.8,90.2-37.5,125.9-62c21.6-14.8,33.9,4.1,36.8,24.6c1.4,10.1,1.3,20.8-1.1,30.8c-3.9,15.9-15.1,29-14.7,46
	c0.4,14.2,9.6,33.9,26.8,28.6c13.4-4.1,23.2-16.8,31.9-27.1c0.3-0.4,0.9-0.1,0.8,0.5c-2.9,12.1,12.8,34,21.9,38.8
	c26.7,14,30.9-17.4,31.4-36.2c0-1.7,40.1,27.9,50.7,5.8c10.6-22.1-19.3-42.7-19.3-42.7s49.8,3.5,50.6-15
	c0.7-18.5-13.8-24.8-42.1-27.1c-28.1-2.3-19.6-10.9-18.2-13.9c5-9.9,26.8-28.7,19.7-37.8c-10.2-13.1-25-4.2-37.7-1
	c-15.2,3.8-38.1,3.2-47.6-11.6c-9.9-15.5,8.5-18.8,22.7-25.4c52.7-24.3,130.2-48.2,152.9-108c7.8-20.6,2.3-42.1-6.1-61.6
	c-11.8-27.4-28.2-52.8-43.3-78.4L2759.2,842C2759.2,842,2719.6,766.6,2646,793.2"/>
<g id="XMLID_53_">
	<path id="XMLID_2_" d="M1241.1,905.4l9.6-7.9l9.4,7.2c0.8,0.4,1.2,1.3,1.2,2.4c0,2.1-1.8,2.8-3.3,2.8h-47.5l-1.1-4.5H1241.1z
		 M1213.2,963.6l7.3,5.1h24.1l3.9-4l6.9,4.5c0.6,0.3,0.9,0.9,0.9,1.4c0,0.4-0.4,2.1-2.4,2.5c-1,0.3-1.8,1-1.8,1.8v38.2
		c0.1,0.9-0.6,1.6-1.5,2.1c-4.5,1.2-5.8,1.5-5.8-2.1v-7.6h-24.1v7.5c0,0.8-0.6,1.5-1.8,1.9c-4.8,1.2-5.7,1.4-5.7-2.2V963.6z
		 M1235.8,927l9.6-7.8l9.4,7.2c0.8,0.4,1.2,1.2,1.2,2.3c0,1.9-1.5,3-3.3,3h-37.5l-1.2-4.6H1235.8z M1235.2,946.9l9.6-7.8l9.4,7
		c0.8,0.5,1.2,1.4,1.2,2.4c0,1.9-1.5,3-3.3,3h-36.9l-1.2-4.6H1235.2z M1235.2,885.4l9.6-7.9l9.4,7.2c0.8,0.4,1.2,1.3,1.2,2.4
		c0,1.9-1.5,2.8-3.3,2.8h-36.3l-1.2-4.5H1235.2z M1220.7,1000.9h24.1v-27.7h-24.1V1000.9z M1260.9,1007.2l-1.2-4.6h37.8v-45.7h-28.3
		l-1.2-4.6h29.5v-41.7h-30.7l-1-4.5h31.8v-28.6l7.8,1.5c2.4,0.3,3.5,1.2,3.5,2.4c0,1.2-0.8,2-2,2.3c-1.2,0.5-1.8,1.4-1.8,2.4V906
		h20.5l9.4-7.9l9.6,7.2c0.8,0.5,1.2,1.4,1.2,2.3c0,1.6-1.2,3-3.4,3h-37.3v41.7h15.9l9.4-7.8l9.6,7.2c0.8,0.5,1,1.4,1,2.4
		c0,2.3-2,2.9-3.3,2.9h-32.7v45.7h22.9l9.4-7.8l9.6,7.2c0.6,0.3,1.1,1.2,1.1,2.1c0,1.6-0.9,3.1-3.3,3.1H1260.9z"/>
	<path id="XMLID_10_" d="M1484.8,884.2l3.3-4l5.8,4.8c1.2,0.9,1.9,1.9,1.9,3.1c0,1.2-0.8,2.1-1.9,2.5c-1,0.5-1.7,1.2-1.7,1.8V937
		h3.2l8.2-8.1l7.8,7.2c0.6,0.6,0.9,1.5,0.9,2.3c0,1.6-1,3.1-3,3.1h-17.1v64.8c0,4.2-3,7.2-13.6,9.1c-0.6-4.9-3.5-6.1-11.1-8.8
		c-1-0.3-1.5-0.9-1.5-1.8c0.1-0.8,0.6-1.1,1.4-1.1h0.4c5,0.8,8.8,1.2,11.5,1.2c3,0,5.4-0.3,5.4-3.8v-59.7H1460v68.8
		c0,2.3-5.4,2.8-5.7,2.8c-1.2,0-1.8-0.9-1.8-2.8v-68.8h-22.9v68.8c0,2.3-5.4,2.8-5.7,2.8c-1.2,0-1.8-0.9-1.8-2.8v-68.8h-22.9v71.4
		c0,1.8-1.6,2.3-6,3.3c-1,0-1.5-1.2-1.5-3.3v-71.4h-16.2l-1.1-4.5h17.2v-59.1l7.5,6.3H1484.8z M1399.2,937h22.9v-48.1h-22.9V937z
		 M1429.6,937h22.9v-48.1h-22.9V937z M1460,937h24.7v-48.1H1460V937z"/>
	<path id="XMLID_15_" d="M1615.3,904.2l-0.6-18.1v-7.9l9.1,1.5c2.3,0.3,3.3,1.4,3.3,2.7c0,1.2-1,2.1-2.5,2.2
		c-1.5,0.2-2.3,0.6-2.3,1.2v18.4h32.1l9.3-7.9l9,6.7c1,0.9,1.7,2.1,1.7,3c0,1.6-1.2,2.7-3.2,2.7h-48.6c0.3,10,1,18.7,2.1,25.9
		c2,15.3,3.5,20.1,7.7,32.5l6.4-9.3c5.1-8.5,9.6-18.3,13.3-28.9l2-6.4l9,4.8c1.4,0.8,2,1.6,2,2.5c0,0.5-0.2,2.1-2.4,2.1
		c-1.2,0-2.1,0.3-2.4,0.9c-5.3,12.3-14.5,29.7-24.9,41.5c8.1,17.8,22.5,27.7,26.2,27.7c0.8,0,1.8-1.8,3-4.8l4.7-12.7
		c0.3-0.7,0.8-1,1.2-1c0.9,0,2,0.8,2,2l-3.1,14.4c-0.2,1-0.3,2.1-0.3,3c0,1.8,0.3,3.3,1.1,4.4c0.6,1,0.9,2.1,0.9,3.1
		c0,3.1-3.3,3.1-3.9,3.1c-4.5,0-23.5-8.1-36.3-33.6l-3.3,3.4c-6.9,7.2-14.4,13.2-22,17.7c-7.5,4.4-16.3,8.2-26.7,11.5
		c-0.5,0-1.6,0-1.6-1.2c0-0.3,0.3-0.8,0.9-0.9c20.5-7.8,36.6-21.6,44.7-30.7l5.1-6.1l-0.6-1.8c-7.3-17.8-10.3-41.1-11.5-63.1h-56.8
		v26.5h30.9l4.2-3.9l6,4.6c0.8,0.6,1,1.3,1,2.3c-0.2,0.9-0.9,1.5-2,1.8c-0.9,0.3-1.6,1.3-1.6,2.8c-0.2,9.1-0.9,17.2-1.7,24.6
		c-2.4,18.7-5.7,22.3-18.1,24c-0.4-5.4-3.3-7.5-8.5-8.8c-0.8-0.1-1.2-0.6-1.2-1.4c0-0.4,0.3-1.9,1.5-1.9c0.1,0,0.3,0.1,0.4,0.1
		c5.9,1.8,10,2.5,12.6,2.5c2,0,3-1.6,3.9-3.9c0.5-1,3.6-9.7,3.6-38.4h-31.3c-0.2,15.9-1.7,38.8-8.3,56.1
		c-2.3,5.5-7.6,17.2-10.2,17.2c-0.5,0-1-0.9-1-1.4c0-0.3,0.1-0.6,0.4-0.9c5.5-12.6,12-28.2,12-84.3v-27.4l6.9,5.1H1615.3z
		 M1652,896.4c-0.4,1.8-2.3,2.4-3.3,2.4c-2.5,0-3.3-2.1-3.4-2.5c-1.5-5.2-5.3-12.4-9.3-15c-0.6-0.3-0.9-0.8-0.9-1.2
		c0-0.5,0.5-1.4,1.4-1.4c2.5,0,13.6,8.2,15.6,13.8V896.4z"/>
	<path id="XMLID_18_" d="M1731,904.6h-23.1l-1.2-4.5h43.8l8.7-6.8l7.8,6c0.6,0.5,1,1.4,1,2.3c0,1-0.6,3-3.3,3h-26.2V973
		c9.1-3.8,18.1-8.5,26.8-14.1c0.4-0.3,0.8-0.3,1-0.3c1.2,0,1.5,1.2,1.5,1.6c0,0.6-0.2,1-0.6,1.4c-18.6,15-40.9,24.1-52,27.4
		c-0.6,0.3-0.9,1-0.9,2.5c0,3.1-2.1,3.1-2.4,3.1c-1,0-1.8-1-2.7-3l-4.2-9.3l7.6-1l18.3-5.4V904.6z M1836.8,914.4
		c0.8,0.4,1,1.2,1,2.1c-0.2,0.9-0.9,1.6-1.8,2c-1.7,0.6-1.7,1.4-1.7,7.9c0,38.4-4.2,64-7.2,71.5c-4.8,11.5-10.5,13.6-18.4,14.7
		c-0.5-4.4-6.6-6.6-12.6-7.4c-0.8,0-1.2-0.6-1.2-1.3c0-1.8,1-1.8,1.7-1.8c5.7,0.9,10,1.4,13.3,1.4c3.9,0,6.8,0,10.2-7.9
		c1.5-3.4,6.8-22.2,6.8-77.4h-31.6l-1.9,15.7c-4.8,31-14.8,47.4-27,60c-11.7,12-28,21.9-28.9,21.9c-0.9,0-1.5-0.8-1.5-1.4
		c0-0.5,0.3-0.8,0.6-1.1c31.5-20.4,46-52.2,49.9-76.9l2.1-18.3h-29.2l-2.7-4.5h32.4l1.1-29.7l-0.8-7l8.5,1.2c1.7,0.2,2.9,0.9,2.9,2
		c0,1.4-0.3,1.5-3.2,3.9l-1.8,29.7h31l4-4L1836.8,914.4z"/>
	<path id="XMLID_34_" d="M1896.3,996.7c0,3.7-2.5,6.7-6.6,6.7c-3,0-6.8-2.3-6.8-6.7c0-3.3,2.3-6.6,6.8-6.6
		C1893.6,990.1,1896.3,993.3,1896.3,996.7z M1883.1,899.5c0-5.4,3-7.6,6.4-7.6c4,0,6.1,3.9,6.1,7.6l-1.2,9.6
		c-2.1,16.6-3.3,36.3-3.3,59.2c0,2.3-0.2,2.4-2.1,3.3c-2.3-0.8-2.3-1-2.3-3.3c0-22.9-0.6-39.4-1.9-49.5L1883.1,899.5z"/>
</g>
<g id="XMLID_57_">
	<path id="XMLID_59_" class="st1" d="M954.9,2014.4c-6.1,62.7-8.7,131.7,38.7,178.4c63.4,62.5,162.1,87.6,246.1,107.7
		c97.1,23.2,197.1,34,296.9,32.7c91.4-1.2,181.7-13.7,271.1-31.9c87-17.7,191.5-43.7,249-117.6c29-37.2,34.4-83.5,33.4-129.2
		c-4.4-183.8-48.5-388.6-173.5-529.7c-6.1-6.9-12.3-13.5-18.8-20.1c-128.7-129.8-326.6-170.4-501.6-130.3
		c-106.6,24.4-205.1,80.6-276,164.5c-100.4,118.8-143.5,275.3-160.3,427.1c-0.6,5.4-1.2,10.8-1.7,16.3
		C957.2,1992.7,956,2003.5,954.9,2014.4z"/>
	<path id="XMLID_58_" class="st2" d="M1299.4,1545.7c-12-7.7-25-13.6-39.1-9c-17.7,5.7-13.8,29.5,0.3,36.3
		c12.5,6,37.5,19.9,37.5,19.9s-44.9-0.5-44.9-0.5c-14,1.2-38,3.6-46.9,16.2c-10.2,14.4,8.7,25.9,20.7,28.4
		c13.8,2.9,37.8,2.2,51.7,3.4c31.1,2.7,54.6,4.5,80.5-5.8c17-6.8,15.3-25.7,1-39.5c-13.5-13.2-27.7-26.9-43-37
		C1311.6,1554.1,1305.7,1549.7,1299.4,1545.7z"/>
	<path id="XMLID_56_" class="st2" d="M1564.5,1616.2c25.1-13.3,56.8-15.4,84.6-15.9c16.3-0.3,64-4.6,70.1,17.2
		c2.6,9.6-4.4,18.4-12.5,22.3c-8.4,4-18.3,4.3-27.3,5.1c-9.7,0.8-32.2,2.9-32.2,2.9s12.6,8.8,16.7,11.7c4.8,3.4,9.6,7.3,14.8,10.1
		c11.6,6.3,38.1,23,25,38.6c-11,13.1-34.2,6.8-47.4,0.9c-15.6-7-30.3-15.7-46.2-22c-16.1-6.3-33.2-9.5-48.3-18.1
		c-22.7-13-20.9-39.8,1.6-52.2C1563.7,1616.6,1564.1,1616.4,1564.5,1616.2z"/>
	<path id="XMLID_55_" class="st2" d="M1256.8,1722.8c2.1-12.8,8-23.9,23.3-21.3c20.7,3.5,14,38.8,18.1,54.1
		c13.5,51,54.7,93.4,106.7,104.6c46.9,10.1,117.1-8,148.5-45.9c13.2-15.9,22.8-59.4,48.1-56.1c32.9,4.3,11.2,45.5,1.2,61.6
		c-36,57.7-103.6,84.4-169.8,83c-60.2-1.3-108.8-28.9-146.4-74.9c-18.8-23.1-28.7-53.1-30.5-82.6
		C1255.7,1739,1255.5,1730.6,1256.8,1722.8z"/>
</g>
<g id="puzzle_8_" class="st3">
	<path id="XMLID_68_" class="st4" d="M2051.6,256.2c-15.3,39.7-23.8,82.6-33.3,124c-11.9,51.8-22.8,103.9-33.4,156
		c-5,24.7-14.6,49.1-14.7,74.5c-0.1,17.4,14.1,30.9,28.6,38.3c10.5,5.4,22,8.3,33.5,10.4c16,2.8,31.8,7,47.6,10.6
		c14.6,3.3,29.6,6,44,10.3c6.7,2,18.4,4.6,25.4,1.3c6.7-3.1,8.1-12.3,10.5-18.8c6.3-16.5,4.8-34.8-11.2-45
		c-11.5-7.3-30.7-7.7-37.8-20.9c-8.3-15.5,6-26.1,19.7-27.7c6-0.7,33.7,0,21.1-11.3c-20-18-33.8-39.6-21.7-52.3
		c12.1-12.7,45.4,21,45.4,21s-8.4-33.4,13-42.5c21.4-9.1,31.4,37.1,32.4,35.9c13.3-14.3,41.5-35,47.6-2c2.4,13.2-6.8,29.8-12.6,41.2
		c13.6-2,31-8.6,44-1.2c18.4,10.5,4.4,30-5.8,40.7c-11.3,11.8-29.8,14.2-41.8,26.3c-14.7,14.8-21,35.1-20.5,55.7
		c0.1,3,1.6,9.4,2.8,15.1c1.3,6.2,6,11,12.2,12.4c50.9,11.6,92.6,21,99.9,22.2c15.1,2.4,32.2,1.8,42.8-10.9
		c27.7-33.2,29.3-87.9,33.9-128.7c2.8-24.7,24.1-21.7,40.5-11.1c8.1,5.3,15.7,12,21.4,19.9c9,12.6,11.4,28.9,23.8,39.1
		c10.4,8.5,30.3,14.2,37.2-1.4c5.4-12.2,2.4-27,0.4-39.7c-0.1-0.5,0.5-0.7,0.8-0.3c6.9,9.6,32.3,12,41.3,8.5
		c26.6-10.4,6.7-33-6.4-45.1c-1.2-1.1,44.9-11.4,35.7-32.7c-9.2-21.3-42.6-12.7-42.6-12.7s33.5-33.5,20.7-45.5
		c-12.8-12-26.4-5.5-45.6,13.3c-19.1,18.7-20,7.2-21.2,4.4c-4-9.7-3.9-37-14.8-37.6c-15.7-0.9-18.5,15.3-24.2,26.4
		c-6.8,13.2-21.4,29.3-37.9,26.9c-17.3-2.6-8.2-17.8-4-32c15.4-52.8,46.5-123.2,17.8-176.7c-9.9-18.4-28.7-27.9-47.9-34
		c-26.9-8.6-55.3-12.7-83.1-17.7l-178-37.3C2157,205.6,2078.3,187,2051.6,256.2"/>
</g>
<g id="puzzle_7_" class="st5">
	<path id="XMLID_67_" class="st6" d="M1856.5,210.3c-13.3-26-31.5-50-48.3-73.8c-21.1-29.8-42.8-59.2-64.7-88.5
		c-10.4-13.8-18.5-29.9-31.5-41.6c-8.9-8-22.3-6.9-32.7-2.9c-7.5,2.9-14.3,7.4-20.7,12.4c-8.8,6.9-18.1,13.1-27.2,19.6
		c-8.4,6-16.6,12.5-25.4,17.9c-4.1,2.5-10.8,7.4-12.3,12.4c-1.5,4.9,2.6,9.8,4.8,14c5.6,10.8,15.7,18.4,28.2,14.8
		c9-2.6,18-12.2,28-9.8c11.7,2.8,10.6,15,5.2,22.8c-2.4,3.4-15.4,17.2-3.9,15.9c18.4-2.1,35.8,0.8,36.7,12.8
		c1,12-31.5,13.6-31.5,13.6s21,11,15.9,26.1s-33.3-0.9-33.2,0.2c1.2,13.4-1,37.3-20.7,25.3c-7.9-4.8-12.2-17.1-15.3-25.3
		c-5.2,7.9-9.8,19.8-19.5,23.1c-13.8,4.7-17.4-11.5-18.2-21.6c-0.9-11.2,6.4-21.7,5.7-33.4c-0.8-14.3-8.4-26.8-19.1-36
		c-1.6-1.3-5.5-3.5-9-5.5c-3.7-2.2-8.4-2-11.9,0.5c-29.2,20.7-53.1,37.8-57.1,41c-8.1,6.7-15.6,15.6-14,26.9
		c4.3,29.4,31.6,55.2,50.4,76.2c11.4,12.7,0.1,22.3-12.8,25.8c-6.4,1.7-13.3,2.6-20,1.8c-10.6-1.2-20-7.4-30.9-5.7
		c-9.1,1.4-21.1,9-16.3,19.7c3.8,8.3,12.8,13.6,20.1,18.4c0.3,0.2,0.1,0.6-0.2,0.6c-8-0.9-20.9,11.1-23.2,17.3
		c-6.8,18.4,13.8,18.5,26,17.3c1.1-0.1-14.7,28.2,0.4,33.2c15.1,5,26-16,26-16s1.8,32.5,13.8,31.5c12-1,14.9-11,14-29.5
		c-0.8-18.4,5.4-13.6,7.5-12.9c6.8,2.4,20.8,14.9,26.1,9.6c7.6-7.7,0.6-16.5-2.4-24.4c-3.7-9.5-5.2-24.4,3.6-31.7
		c9.2-7.7,12.9,4,18.2,12.6c20,32,41.9,80.2,82.4,89.9c13.9,3.4,27.4-2,39.3-9c16.7-9.9,31.8-22.5,47.1-34.5l100.5-74.2
		C1834.2,287.5,1879.7,255.7,1856.5,210.3"/>
</g>
<g id="puzzle_2_" class="st7">
	<path id="XMLID_66_" class="st8" d="M1093.1,337.5c16.6,6.6,34.6,10.2,52,14.2c21.7,5,43.6,9.7,65.5,14.1
		c10.3,2.1,20.6,6.2,31.2,6.2c7.3,0,13-6.2,16.2-12.6c2.3-4.6,3.6-9.6,4.5-14.7c1.3-7,3.1-13.9,4.7-20.8c1.5-6.4,2.6-13,4.5-19.3
		c0.9-2.9,2-8.1,0.7-11.1c-1.3-2.9-5.1-3.5-7.9-4.5c-6.9-2.7-14.6-2-19,5c-3.1,5.1-3.4,13.4-9,16.6c-6.5,3.7-10.9-2.5-11.6-8.5
		c-0.3-2.6,0.2-14.7-4.6-9.2c-7.6,8.8-16.8,14.9-22.1,9.6c-5.3-5.2,9-19.9,9-19.9s-14.1,3.8-17.8-5.5c-3.7-9.3,15.7-13.8,15.2-14.3
		c-6-5.8-14.5-18-0.6-20.8c5.6-1.1,12.5,2.9,17.3,5.4c-0.8-5.9-3.5-13.5-0.3-19.2c4.5-8.1,12.6-2,17.1,2.4c4.9,4.9,5.8,13,10.9,18.2
		c6.2,6.4,14.7,9,23.3,8.8c1.3,0,4-0.7,6.4-1.2c2.6-0.6,4.7-2.7,5.3-5.3c5.1-22.2,9.3-40.5,9.8-43.7c1.1-6.6,0.9-14-4.4-18.6
		c-13.8-12-36.8-12.5-54-14.4c-10.4-1.2-9-10.4-4.5-17.6c2.3-3.6,5.1-6.9,8.5-9.4c5.4-4,12.2-5.1,16.6-10.5
		c3.6-4.6,6.1-13.3-0.4-16.2c-5.1-2.3-11.4-1-16.7-0.1c-0.2,0-0.3-0.2-0.1-0.4c4.1-3,5.2-14.2,3.7-18.1c-4.3-11.6-13.8-2.8-19,2.9
		c-0.5,0.5-4.6-19.6-13.6-15.5c-9,4.1-5.5,18.6-5.5,18.6s-13.9-14.5-19-8.9c-5.1,5.6-2.4,11.5,5.4,19.9c7.8,8.3,3,8.7,1.7,9.3
		c-4.1,1.8-15.6,1.8-15.9,6.6c-0.4,6.9,6.4,8.1,11,10.5c5.5,2.9,12.2,9.3,11.1,16.5c-1.2,7.6-7.5,3.6-13.5,1.9
		c-22.1-6.6-51.6-19.9-74.2-7.3c-7.8,4.4-11.8,12.6-14.5,21c-3.7,11.8-5.6,24.2-7.8,36.3l-16.5,77.9
		C1072.3,291.6,1064.1,326.1,1093.1,337.5"/>
</g>
<g id="puzzle_3_" class="st9">
	<path id="XMLID_65_" class="st10" d="M788.8,596c-9.5-3.3-19.6-5.1-29.4-7c-12.3-2.5-24.6-4.7-37-6.8c-5.8-1-11.7-3.1-17.6-3
		c-4.1,0.1-7.2,3.5-8.8,7c-1.2,2.5-1.8,5.2-2.2,8c-0.6,3.8-1.4,7.5-2.2,11.3c-0.7,3.5-1.2,7-2.1,10.4c-0.4,1.6-1,4.4-0.1,6
		c0.8,1.6,2.9,1.8,4.5,2.4c3.9,1.4,8.2,0.9,10.5-2.9c1.7-2.8,1.6-7.3,4.7-9c3.6-2.1,6.2,1.2,6.7,4.4c0.2,1.4,0.2,7.9,2.8,4.9
		c4.1-4.8,9.1-8.2,12.2-5.5c3.1,2.8-4.7,10.8-4.7,10.8s7.8-2.2,10.1,2.8s-8.5,7.6-8.2,7.9c3.5,3,8.5,9.5,0.8,11.2
		c-3.1,0.7-7.1-1.4-9.8-2.7c0.6,3.2,2.2,7.2,0.6,10.4c-2.3,4.4-7,1.2-9.6-1.1c-2.8-2.6-3.5-6.9-6.5-9.7c-3.6-3.4-8.4-4.7-13.2-4.5
		c-0.7,0-2.2,0.4-3.5,0.7c-1.4,0.3-2.6,1.5-2.8,2.9c-2.4,12.1-4.3,22-4.6,23.7c-0.5,3.6-0.2,7.6,2.8,10c8,6.3,20.9,6.3,30.5,7.1
		c5.8,0.5,5.3,5.5,2.9,9.5c-1.2,1.9-2.7,3.8-4.6,5.2c-2.9,2.2-6.7,2.9-9.1,5.9c-1.9,2.5-3.1,7.2,0.6,8.7c2.9,1.2,6.4,0.4,9.4-0.2
		c0.1,0,0.2,0.1,0.1,0.2c-2.2,1.7-2.6,7.7-1.7,9.8c2.6,6.2,7.8,1.4,10.6-1.8c0.2-0.3,3,10.5,7.9,8.2s2.7-10.1,2.7-10.1
		s8.1,7.7,10.9,4.6c2.7-3.1,1.1-6.2-3.4-10.7c-4.5-4.4-1.8-4.7-1.2-5c2.3-1,8.7-1.2,8.8-3.7c0.1-3.7-3.7-4.3-6.4-5.5
		c-3.2-1.5-7-4.9-6.6-8.8c0.5-4.1,4.1-2,7.5-1.2c12.5,3.3,29.3,10.1,41.7,3c4.3-2.4,6.4-7,7.7-11.5c1.8-6.4,2.6-13.1,3.6-19.7
		l7.6-42.2C801.4,620.5,805.3,601.9,788.8,596"/>
</g>
<g id="puzzle_4_">
	<path id="XMLID_64_" class="st11" d="M723.8,449.1c11.7,10.3,25.3,18.7,38.3,27.3c16.3,10.7,32.8,21.1,49.3,31.4
		c7.8,4.9,15,11.3,23.7,14.6c6,2.3,12.4-0.9,16.8-4.9c3.2-2.9,5.7-6.5,7.9-10.2c3-5.1,6.5-10,9.7-15c3-4.6,5.8-9.4,9.2-13.8
		c1.6-2.1,3.9-5.7,3.7-8.6c-0.2-2.7-3.2-4.3-5.1-6c-4.9-4.3-11.3-6.1-16.9-1.9c-4,3-6.6,9.6-12,10.3c-6.4,0.9-8.2-5.4-7-10.3
		c0.5-2.1,4.3-11.6-1.2-8.7c-8.7,4.6-17.9,6.6-20.7,0.8s13-12.9,13-12.9s-12.6-1.4-12.9-9.9c-0.4-8.5,16.7-6,16.5-6.6
		c-3.2-6.4-6.7-18.7,5.4-16.6c4.9,0.9,9.4,6.1,12.5,9.6c1-4.9,1-11.7,5.2-15.3c6-5,10.9,2.3,13.2,7.2c2.6,5.4,1.1,12,3.7,17.7
		c3.2,6.9,9.4,11.7,16.5,14.2c1,0.4,3.4,0.7,5.5,1c2.3,0.3,4.6-0.7,5.8-2.6c10.5-16,19.1-29.1,20.4-31.5c2.7-4.9,4.7-10.8,1.7-16.1
		c-7.8-13.8-26.4-21.3-39.9-28.1c-8.1-4.1-4.4-11,1.4-15.3c2.9-2.1,6.1-3.9,9.6-4.8c5.5-1.5,11.4-0.2,16.5-3.2
		c4.3-2.5,8.7-8.6,4.3-12.9c-3.5-3.4-9-4.3-13.6-5.2c-0.2,0-0.2-0.3,0-0.3c4.2-1.1,8.3-9.6,8.2-13.1c-0.2-10.5-10.5-6.5-16.3-3.6
		c-0.5,0.3,1.8-16.9-6.7-16.4c-8.5,0.4-9.8,13-9.8,13s-7.2-15.8-13-12.9s-5.3,8.3-1.3,17.4c4,9-0.1,7.8-1.2,7.8
		c-3.9,0.1-13.2-3.4-14.8,0.3c-2.3,5.3,2.9,8.3,6,11.7c3.7,4,7.3,11.1,4.4,16.5c-3.1,5.6-7.2,0.5-11.5-2.7
		c-16.2-12-36.4-31.7-58.4-28.7c-7.6,1-13.2,6.3-17.8,12.1c-6.4,8.2-11.4,17.4-16.7,26.3l-35.6,56.4
		C719.9,406.4,703.5,431.1,723.8,449.1"/>
</g>
<g id="puzzle_5_" class="st3">
	<path id="XMLID_63_" class="st4" d="M491.3,721.5c-3.3,9.1-5.1,18.9-7,28.3c-2.5,11.8-4.7,23.7-6.9,35.6c-1,5.6-3.1,11.2-3,17
		c0.1,4,3.3,7,6.7,8.6c2.4,1.2,5,1.8,7.7,2.2c3.6,0.6,7.3,1.5,10.9,2.2c3.3,0.7,6.8,1.2,10,2.2c1.5,0.4,4.2,1,5.8,0.2
		c1.5-0.7,1.8-2.8,2.3-4.3c1.4-3.8,0.9-7.9-2.7-10.2c-2.7-1.6-7-1.6-8.7-4.6c-1.9-3.5,1.2-6,4.4-6.4c1.4-0.2,7.7-0.1,4.7-2.6
		c-4.6-4-7.9-8.8-5.2-11.8c2.7-2.9,10.4,4.6,10.4,4.6s-2-7.6,2.8-9.7c4.8-2.2,7.3,8.3,7.5,8c3-3.3,9.3-8.1,10.8-0.6
		c0.6,3-1.4,6.8-2.7,9.4c3.1-0.5,7-2.1,10-0.5c4.2,2.3,1.1,6.8-1.1,9.3c-2.5,2.7-6.7,3.3-9.4,6.1c-3.3,3.4-4.6,8.1-4.4,12.7
		c0,0.7,0.4,2.1,0.7,3.4c0.3,1.4,1.4,2.5,2.8,2.8c11.6,2.4,21.1,4.4,22.8,4.6c3.4,0.5,7.3,0.3,9.7-2.6c6.2-7.6,6.3-20.1,7.2-29.4
		c0.5-5.6,5.4-5,9.1-2.7c1.9,1.2,3.6,2.7,4.9,4.4c2.1,2.8,2.7,6.5,5.6,8.8c2.4,1.9,6.9,3.1,8.4-0.5c1.2-2.8,0.4-6.2-0.1-9
		c0-0.1,0.1-0.2,0.2-0.1c1.6,2.1,7.4,2.6,9.4,1.7c6-2.5,1.4-7.5-1.6-10.2c-0.3-0.2,10.2-2.8,8-7.6s-9.7-2.7-9.7-2.7
		s7.5-7.7,4.5-10.4c-3-2.7-6-1.1-10.3,3.2c-4.3,4.3-4.5,1.7-4.8,1.1c-1-2.2-1-8.4-3.5-8.5c-3.6-0.1-4.1,3.6-5.4,6.1
		c-1.5,3-4.7,6.7-8.5,6.3c-3.9-0.5-1.9-4-1.1-7.3c3.3-12.1,10-28.2,3.3-40.2c-2.3-4.1-6.6-6.2-11-7.5c-6.2-1.8-12.6-2.6-18.9-3.7
		l-40.6-7.7C515.1,709.6,497.1,705.7,491.3,721.5"/>
</g>
<g id="puzzle_6_" class="st12">
	<path id="XMLID_61_" class="st8" d="M613.3,1012.3c3.8-10,5.7-20.8,7.9-31.3c2.8-13.1,5.3-26.2,7.7-39.3c1.2-6.2,3.5-12.4,3.4-18.8
		c-0.1-4.4-3.9-7.7-7.7-9.6c-2.8-1.3-5.8-2.1-8.8-2.5c-4.2-0.7-8.4-1.7-12.5-2.6c-3.8-0.8-7.8-1.4-11.6-2.5
		c-1.8-0.5-4.8-1.1-6.7-0.3c-1.7,0.8-2,3.1-2.6,4.7c-1.5,4.2-1,8.8,3.2,11.3c3.1,1.8,8.1,1.9,10,5.2c2.3,3.9-1.4,6.6-5,7
		c-1.6,0.2-8.8,0.1-5.4,2.9c5.4,4.5,9.1,9.9,6,13.1s-12-5.2-12-5.2s2.4,8.4-3.1,10.7c-5.5,2.3-8.4-9.3-8.7-9
		c-3.4,3.6-10.6,8.9-12.4,0.6c-0.7-3.3,1.6-7.5,3-10.4c-3.5,0.5-8,2.2-11.5,0.4c-4.9-2.6-1.3-7.5,1.2-10.2c2.9-3,7.7-3.6,10.8-6.7
		c3.8-3.7,5.3-8.9,5-14c0-0.8-0.5-2.4-0.8-3.8c-0.4-1.5-1.6-2.8-3.3-3.1c-13.4-2.8-24.3-5.1-26.2-5.4c-4-0.6-8.4-0.4-11.1,2.8
		c-7,8.4-7.1,22.2-8.1,32.4c-0.6,6.2-6.2,5.5-10.5,2.9c-2.2-1.3-4.2-3-5.7-5c-2.4-3.2-3.2-7.2-6.5-9.8c-2.8-2.1-8-3.5-9.7,0.4
		c-1.3,3.1-0.5,6.8,0.1,10c0,0.1-0.1,0.2-0.2,0.1c-1.9-2.4-8.5-2.9-10.9-2c-6.9,2.7-1.6,8.3,2,11.3c0.3,0.3-11.7,2.9-9.1,8.3
		s11.2,3.1,11.2,3.1s-8.5,8.5-5.1,11.5c3.4,3,6.9,1.3,11.8-3.4c4.9-4.7,5.2-1.9,5.5-1.1c1.1,2.4,1.2,9.3,4.1,9.4
		c4.1,0.2,4.7-3.9,6.2-6.7c1.7-3.3,5.4-7.4,9.7-6.8c4.5,0.6,2.2,4.5,1.3,8c-3.7,13.3-11.4,31.1-3.5,44.5c2.7,4.6,7.7,6.9,12.7,8.4
		c7.1,2.1,14.5,3.1,21.8,4.3l46.8,9C586.1,1025.2,606.8,1029.7,613.3,1012.3"/>
</g>
<g id="XMLID_1_">
</g>
<g id="XMLID_37_">
</g>
<g id="XMLID_38_">
</g>
<g id="XMLID_39_">
</g>
<g id="XMLID_40_">
</g>
<g id="XMLID_41_">
</g>
<g id="XMLID_42_">
</g>
<g id="XMLID_43_">
</g>
<g id="XMLID_44_">
</g>
<g id="XMLID_45_">
</g>
<g id="XMLID_46_">
</g>
<g id="XMLID_47_">
</g>
<g id="XMLID_48_">
</g>
<g id="XMLID_49_">
</g>
<g id="XMLID_50_">
</g>
</svg>
